<mxfile host="app.diagrams.net" modified="2022-08-14T01:37:48.590Z" agent="5.0 (Macintosh; Intel Mac OS X 10_15_7) AppleWebKit/537.36 (KHTML, like Gecko) Chrome/103.0.0.0 Safari/537.36" etag="o_L56mv0qUcqzJJlmfg9" version="14.8.4" type="github">
  <diagram id="J5QPP5WxvlHMyizQHfS9" name="第 1 页">
    <mxGraphModel dx="1220" dy="1036" grid="1" gridSize="10" guides="1" tooltips="1" connect="1" arrows="1" fold="1" page="1" pageScale="1" pageWidth="827" pageHeight="1169" math="0" shadow="0">
      <root>
        <mxCell id="0" />
        <mxCell id="1" parent="0" />
        <mxCell id="P1Xvew0TcwPgIdb7x4x0-2" value="" style="rounded=0;whiteSpace=wrap;html=1;" vertex="1" parent="1">
          <mxGeometry x="190" y="330" width="310" height="60" as="geometry" />
        </mxCell>
        <mxCell id="P1Xvew0TcwPgIdb7x4x0-3" value="fabric区块链" style="rounded=1;whiteSpace=wrap;html=1;fillColor=#4FB9FF;" vertex="1" parent="1">
          <mxGeometry x="210" y="345" width="80" height="30" as="geometry" />
        </mxCell>
        <mxCell id="P1Xvew0TcwPgIdb7x4x0-4" value="去中心化存储" style="rounded=1;whiteSpace=wrap;html=1;fillColor=#4FB9FF;" vertex="1" parent="1">
          <mxGeometry x="388" y="345" width="90" height="30" as="geometry" />
        </mxCell>
        <mxCell id="P1Xvew0TcwPgIdb7x4x0-6" value="" style="rounded=0;whiteSpace=wrap;html=1;" vertex="1" parent="1">
          <mxGeometry x="190" y="240" width="310" height="60" as="geometry" />
        </mxCell>
        <mxCell id="P1Xvew0TcwPgIdb7x4x0-8" value="本地存储" style="rounded=1;whiteSpace=wrap;html=1;fillColor=#4FB9FF;" vertex="1" parent="1">
          <mxGeometry x="200" y="256" width="80" height="30" as="geometry" />
        </mxCell>
        <mxCell id="P1Xvew0TcwPgIdb7x4x0-9" value="合约管理" style="rounded=1;whiteSpace=wrap;html=1;fillColor=#4FB9FF;" vertex="1" parent="1">
          <mxGeometry x="300" y="256" width="80" height="30" as="geometry" />
        </mxCell>
        <mxCell id="P1Xvew0TcwPgIdb7x4x0-10" value="分布式数字身份服务" style="rounded=1;whiteSpace=wrap;html=1;fillColor=#4FB9FF;" vertex="1" parent="1">
          <mxGeometry x="50" y="160" width="120" height="60" as="geometry" />
        </mxCell>
        <mxCell id="P1Xvew0TcwPgIdb7x4x0-11" value="联盟管理" style="rounded=1;whiteSpace=wrap;html=1;fillColor=#4FB9FF;" vertex="1" parent="1">
          <mxGeometry x="398" y="257" width="80" height="30" as="geometry" />
        </mxCell>
        <mxCell id="P1Xvew0TcwPgIdb7x4x0-12" value="" style="rounded=0;whiteSpace=wrap;html=1;" vertex="1" parent="1">
          <mxGeometry x="190" y="160" width="310" height="60" as="geometry" />
        </mxCell>
        <mxCell id="P1Xvew0TcwPgIdb7x4x0-13" value="DID管理" style="rounded=1;whiteSpace=wrap;html=1;fillColor=#4FB9FF;" vertex="1" parent="1">
          <mxGeometry x="200" y="175" width="80" height="30" as="geometry" />
        </mxCell>
        <mxCell id="P1Xvew0TcwPgIdb7x4x0-14" value="凭证管理" style="rounded=1;whiteSpace=wrap;html=1;fillColor=#4FB9FF;" vertex="1" parent="1">
          <mxGeometry x="300" y="175" width="80" height="30" as="geometry" />
        </mxCell>
        <mxCell id="P1Xvew0TcwPgIdb7x4x0-15" value="DID解析器" style="rounded=1;whiteSpace=wrap;html=1;fillColor=#4FB9FF;" vertex="1" parent="1">
          <mxGeometry x="398" y="175" width="80" height="30" as="geometry" />
        </mxCell>
        <mxCell id="P1Xvew0TcwPgIdb7x4x0-16" value="可信交换层" style="rounded=1;whiteSpace=wrap;html=1;fillColor=#4FB9FF;" vertex="1" parent="1">
          <mxGeometry x="50" y="10" width="120" height="130" as="geometry" />
        </mxCell>
        <mxCell id="P1Xvew0TcwPgIdb7x4x0-17" value="" style="rounded=0;whiteSpace=wrap;html=1;" vertex="1" parent="1">
          <mxGeometry x="190" y="10" width="310" height="130" as="geometry" />
        </mxCell>
        <mxCell id="P1Xvew0TcwPgIdb7x4x0-18" value="发行方" style="rounded=1;whiteSpace=wrap;html=1;fillColor=#4FB9FF;" vertex="1" parent="1">
          <mxGeometry x="200" y="95" width="80" height="30" as="geometry" />
        </mxCell>
        <mxCell id="P1Xvew0TcwPgIdb7x4x0-19" value="验证方" style="rounded=1;whiteSpace=wrap;html=1;fillColor=#4FB9FF;" vertex="1" parent="1">
          <mxGeometry x="398" y="95" width="80" height="30" as="geometry" />
        </mxCell>
        <mxCell id="P1Xvew0TcwPgIdb7x4x0-20" value="持有者" style="rounded=1;whiteSpace=wrap;html=1;fillColor=#4FB9FF;" vertex="1" parent="1">
          <mxGeometry x="305" y="40" width="80" height="30" as="geometry" />
        </mxCell>
        <mxCell id="P1Xvew0TcwPgIdb7x4x0-21" value="" style="endArrow=classic;html=1;" edge="1" parent="1">
          <mxGeometry width="50" height="50" relative="1" as="geometry">
            <mxPoint x="250" y="90" as="sourcePoint" />
            <mxPoint x="300" y="60" as="targetPoint" />
          </mxGeometry>
        </mxCell>
        <mxCell id="P1Xvew0TcwPgIdb7x4x0-22" value="" style="endArrow=classic;html=1;entryX=0.5;entryY=0;entryDx=0;entryDy=0;exitX=1;exitY=0.5;exitDx=0;exitDy=0;" edge="1" parent="1" source="P1Xvew0TcwPgIdb7x4x0-20" target="P1Xvew0TcwPgIdb7x4x0-19">
          <mxGeometry width="50" height="50" relative="1" as="geometry">
            <mxPoint x="410" y="70" as="sourcePoint" />
            <mxPoint x="460" y="20" as="targetPoint" />
          </mxGeometry>
        </mxCell>
        <mxCell id="P1Xvew0TcwPgIdb7x4x0-23" value="" style="pointerEvents=1;shadow=0;dashed=0;html=1;strokeColor=none;fillColor=#505050;labelPosition=center;verticalLabelPosition=bottom;verticalAlign=top;outlineConnect=0;align=center;shape=mxgraph.office.devices.cell_phone_iphone_standalone;" vertex="1" parent="1">
          <mxGeometry x="280" y="10" width="25" height="42" as="geometry" />
        </mxCell>
        <mxCell id="P1Xvew0TcwPgIdb7x4x0-24" value="区块链网络层" style="rounded=1;whiteSpace=wrap;html=1;fillColor=#4FB9FF;" vertex="1" parent="1">
          <mxGeometry x="50" y="330" width="120" height="60" as="geometry" />
        </mxCell>
        <mxCell id="P1Xvew0TcwPgIdb7x4x0-25" value="二层网络层" style="rounded=1;whiteSpace=wrap;html=1;fillColor=#4FB9FF;" vertex="1" parent="1">
          <mxGeometry x="50" y="241" width="120" height="60" as="geometry" />
        </mxCell>
      </root>
    </mxGraphModel>
  </diagram>
</mxfile>
